<svg width="662" height="125" viewBox="0 0 662 125" fill="none" xmlns="http://www.w3.org/2000/svg">
<g clip-path="url(#clip0_1819_1436)">
<path d="M175.463 53.3315C175.463 53.3315 151.745 48.2853 147.951 64.0175C145.167 76.6283 143.129 89.3923 141.848 102.243H116.514L129.412 29.6837H151.316L150.194 42.0518C150.194 42.0518 156.792 29.1231 179.883 29.6837L175.463 53.3315Z" fill="#432078"/>
<path d="M13.7559 29.6833H36.2866C36.2866 29.6833 34.6042 39.248 36.2866 39.248C37.969 39.248 36.8474 29.0897 59.8729 29.6833C59.8729 29.6833 71.6496 30.244 71.6496 39.248C71.6496 39.248 76.1359 27.9683 98.6007 29.6833C121.065 31.3984 116.579 56.6292 116.579 56.6292L109.784 102.243H83.9541L91.8052 63.5224C91.8052 63.5224 95.7307 47.7902 83.9541 48.9116C72.1774 50.0329 72.5733 65.963 72.5733 65.963L68.2189 102.243H44.0718L50.2405 60.719C50.2405 60.719 55.8814 46.6688 42.3894 48.3509C42.3894 48.3509 34.5383 44.2282 31.7343 65.93L25.1367 102.21H0L13.7559 29.6833Z" fill="#432078"/>
<path d="M189.515 0H213.102V97.3945C211.655 104.327 208.098 110.642 202.918 115.473C197.738 120.304 191.189 123.413 184.171 124.373C159.2 128.001 155.802 114.809 155.802 114.809L169.294 102.243C169.294 102.243 179.388 107.85 188.097 102.243C188.097 102.243 191.396 97.7572 191.396 83.4433C191.396 69.1293 189.515 0 189.515 0Z" fill="#432078"/>
<path d="M280.397 49.967C277.296 39.8747 270.501 30.6069 252.885 26.88C247.767 25.8642 242.468 26.2711 237.565 28.0563C232.662 29.8415 228.343 32.9367 225.076 37.0053L234.214 51.3852C256.382 35.6531 261.429 60.9169 261.429 60.9169C261.429 60.9169 259.483 57.256 241.208 58.6742C222.932 60.0924 217.06 70.1847 218.479 85.3562C219.897 100.528 233.356 104.42 245.133 102.177C251.959 101.007 258.089 97.2952 262.287 91.7876V102.243H282.079C282.079 102.243 283.696 60.0924 280.397 49.967ZM256.019 82.4538C256.019 82.4538 246.123 92.3483 240.581 85.5541C238.989 83.9483 238.096 81.7791 238.096 79.5185C238.096 77.2579 238.989 75.0887 240.581 73.4829C243.685 71.5015 247.217 70.2911 250.884 69.9526C254.551 69.6141 258.246 70.1573 261.66 71.537C260.529 75.5164 258.611 79.2286 256.019 82.4538Z" fill="#432078"/>
<path d="M336.476 53.6278L350.232 39.3138C345.715 34.7299 340.136 31.332 333.99 29.4219C327.844 27.5117 321.321 27.1483 315.001 28.3639C306.808 29.5839 299.336 33.7316 293.968 40.0385C288.6 46.3455 285.7 54.384 285.807 62.6647C286.07 72.5592 290.557 102.243 318.069 104.32C345.581 106.398 350.364 93.0737 350.364 93.0737L335.486 79.1225C335.486 79.1225 318.102 91.2267 310.086 74.4061C302.07 57.5856 320.477 49.703 320.477 49.703C320.477 49.703 333.177 47.7241 336.476 53.6278Z" fill="#432078"/>
<path d="M354.586 0V101.055H378.733V78.9578L398.097 101.055H423.662L394.732 64.5449L423.662 31.1675L393.973 32.2889C393.973 32.2889 377.15 52.5066 377.48 51.6491C377.809 50.7916 378.436 0 378.436 0H354.586Z" fill="#432078"/>
<path d="M527.509 64.5449C524.705 33.971 498.315 29.4855 498.315 29.4855C498.315 29.4855 483.437 26.3852 477.532 37.3351V0H455.232V101.055H476.872V93.4697C476.872 93.4697 483.47 102.243 489.771 102.77C496.071 103.298 507.749 102.77 507.749 102.77C507.749 102.77 530.313 95.1187 527.509 64.5449ZM498.875 82.4538C498.875 82.4538 480.072 89.281 477.532 69.8879C477.532 69.8879 475.85 55.7718 483.437 51.4512C485.175 50.303 487.131 49.5241 489.183 49.1629C491.235 48.8017 493.339 48.8658 495.365 49.3513C497.391 49.8369 499.295 50.7334 500.96 51.9854C502.625 53.2373 504.015 54.818 505.044 56.6293C514.05 69.624 498.875 82.4538 498.875 82.4538Z" fill="#DC944A"/>
<path d="M569.898 28.0675C531.171 28.3644 533.612 69.0636 533.612 69.0636C533.612 69.0636 536.152 108.872 578.277 103.002C578.277 103.002 593.716 101.056 598.07 93.1071L584.017 79.3538C584.017 79.3538 576.496 86.7417 569.173 83.6084C566.373 83.1606 563.78 81.8587 561.748 79.8809C559.717 77.9031 558.347 75.346 557.825 72.5596C561.75 72.5596 604.997 73.681 604.997 73.681C604.997 73.681 608.659 27.8037 569.898 28.0675ZM556.703 59.2351C558.122 53.8921 559.243 49.7034 569.371 48.9778C579.498 48.2522 585.073 59.367 585.073 59.367L556.703 59.2351Z" fill="#DC944A"/>
<path d="M621.854 31.7287V10.1258L641.646 2.54004V31.7287H661.868V51.5176H643.626V78.3316C643.626 78.3316 643.626 84.9279 654.578 83.7076L659.757 101.056C659.757 101.056 640.393 104.981 633.927 101.056C627.462 97.1311 622.15 93.4701 621.854 77.9688C621.557 62.4675 621.854 51.5836 621.854 51.5836H608.395V31.7947L621.854 31.7287Z" fill="#DC944A"/>
<path d="M393.875 32.2893C381.098 47.3728 368.002 62.2915 354.587 77.0452L354.224 101.056L378.668 79.156L398.097 101.188H424.785L394.733 64.6771L423.663 31.2998L393.875 32.2893Z" fill="#DC944A"/>
<path d="M438.639 101.056C445.143 101.056 450.416 95.7841 450.416 89.2812C450.416 82.7784 445.143 77.5068 438.639 77.5068C432.135 77.5068 426.862 82.7784 426.862 89.2812C426.862 95.7841 432.135 101.056 438.639 101.056Z" fill="#DC944A"/>
</g>
<defs>
<clipPath id="clip0_1819_1436">
<rect width="662" height="125" fill="white"/>
</clipPath>
</defs>
</svg>
